<svg xmlns="http://www.w3.org/2000/svg" viewBox="0 0 75 7" width="750" height="70">
  <style>rect{fill:#1E3A5F}</style>
  <!-- Row 0: l ascender, i dot, t top -->
  <rect x="9" y="0" width="2" height="1"/>
  <rect x="58" y="0" width="2" height="1"/>
  <rect x="62" y="0" width="2" height="1"/>
  <!-- Row 1: l, i, t crossbar -->
  <rect x="9" y="1" width="2" height="1"/>
  <rect x="58" y="1" width="2" height="1"/>
  <rect x="61" y="1" width="4" height="1"/>
  <!-- Row 2: c top, l, a top, w top, s top, e top, w top, i, t, z top -->
  <rect x="1" y="2" width="4" height="1"/>
  <rect x="9" y="2" width="2" height="1"/>
  <rect x="15" y="2" width="4" height="1"/>
  <rect x="22" y="2" width="2" height="1"/>
  <rect x="29" y="2" width="2" height="1"/>
  <rect x="34" y="2" width="5" height="1"/>
  <rect x="42" y="2" width="4" height="1"/>
  <rect x="49" y="2" width="2" height="1"/>
  <rect x="56" y="2" width="2" height="1"/>
  <rect x="58" y="2" width="2" height="1"/>
  <rect x="62" y="2" width="2" height="1"/>
  <rect x="67" y="2" width="5" height="1"/>
  <!-- Row 3: c body, l, a body, w body, s mid, e mid, w body, i, t, z -->
  <rect x="0" y="3" width="2" height="1"/>
  <rect x="9" y="3" width="2" height="1"/>
  <rect x="14" y="3" width="2" height="1"/>
  <rect x="18" y="3" width="2" height="1"/>
  <rect x="22" y="3" width="2" height="1"/>
  <rect x="29" y="3" width="2" height="1"/>
  <rect x="33" y="3" width="2" height="1"/>
  <rect x="41" y="3" width="2" height="1"/>
  <rect x="45" y="3" width="2" height="1"/>
  <rect x="49" y="3" width="2" height="1"/>
  <rect x="56" y="3" width="2" height="1"/>
  <rect x="58" y="3" width="2" height="1"/>
  <rect x="62" y="3" width="2" height="1"/>
  <rect x="69" y="3" width="2" height="1"/>
  <!-- Row 4: c, l, a full, w mid, s curve, e full, w mid, i, t, z -->
  <rect x="0" y="4" width="2" height="1"/>
  <rect x="9" y="4" width="2" height="1"/>
  <rect x="14" y="4" width="6" height="1"/>
  <rect x="22" y="4" width="2" height="1"/>
  <rect x="26" y="4" width="1" height="1"/>
  <rect x="29" y="4" width="2" height="1"/>
  <rect x="34" y="4" width="4" height="1"/>
  <rect x="41" y="4" width="6" height="1"/>
  <rect x="49" y="4" width="2" height="1"/>
  <rect x="53" y="4" width="1" height="1"/>
  <rect x="56" y="4" width="2" height="1"/>
  <rect x="58" y="4" width="2" height="1"/>
  <rect x="62" y="4" width="2" height="1"/>
  <rect x="68" y="4" width="2" height="1"/>
  <!-- Row 5: c, l, a, w merge, s bottom, e, w merge, i, t, z -->
  <rect x="0" y="5" width="2" height="1"/>
  <rect x="9" y="5" width="2" height="1"/>
  <rect x="14" y="5" width="2" height="1"/>
  <rect x="18" y="5" width="2" height="1"/>
  <rect x="23" y="5" width="2" height="1"/>
  <rect x="27" y="5" width="1" height="1"/>
  <rect x="29" y="5" width="2" height="1"/>
  <rect x="37" y="5" width="2" height="1"/>
  <rect x="41" y="5" width="2" height="1"/>
  <rect x="50" y="5" width="2" height="1"/>
  <rect x="54" y="5" width="1" height="1"/>
  <rect x="56" y="5" width="2" height="1"/>
  <rect x="58" y="5" width="2" height="1"/>
  <rect x="62" y="5" width="2" height="1"/>
  <rect x="67" y="5" width="2" height="1"/>
  <!-- Row 6: c bottom, l bottom, a, w bottom, s bottom, e bottom, w bottom, i, t tail, z bottom -->
  <rect x="1" y="6" width="4" height="1"/>
  <rect x="9" y="6" width="2" height="1"/>
  <rect x="14" y="6" width="2" height="1"/>
  <rect x="18" y="6" width="2" height="1"/>
  <rect x="24" y="6" width="2" height="1"/>
  <rect x="28" y="6" width="2" height="1"/>
  <rect x="33" y="6" width="5" height="1"/>
  <rect x="42" y="6" width="4" height="1"/>
  <rect x="51" y="6" width="2" height="1"/>
  <rect x="55" y="6" width="2" height="1"/>
  <rect x="58" y="6" width="2" height="1"/>
  <rect x="63" y="6" width="2" height="1"/>
  <rect x="67" y="6" width="5" height="1"/>
</svg>
