<svg xmlns="http://www.w3.org/2000/svg" viewBox="0 0 99 14" fill="#1B3A6B">
  <rect x="9.9" y="0" width="1.2" height="2.1"/>
  <rect x="11" y="0" width="1.2" height="2.1"/>
  <rect x="12.1" y="0" width="1.2" height="2.1"/>
  <rect x="78.1" y="0" width="1.2" height="2.1"/>
  <rect x="79.2" y="0" width="1.2" height="2.1"/>
  <rect x="80.3" y="0" width="1.2" height="2.1"/>
  <rect x="84.7" y="0" width="1.2" height="2.1"/>
  <rect x="85.8" y="0" width="1.2" height="2.1"/>
  <rect x="86.9" y="0" width="1.2" height="2.1"/>
  <rect x="9.9" y="2" width="1.2" height="2.1"/>
  <rect x="11" y="2" width="1.2" height="2.1"/>
  <rect x="12.1" y="2" width="1.2" height="2.1"/>
  <rect x="84.7" y="2" width="1.2" height="2.1"/>
  <rect x="85.8" y="2" width="1.2" height="2.1"/>
  <rect x="86.9" y="2" width="1.2" height="2.1"/>
  <rect x="2.2" y="4" width="1.2" height="2.1"/>
  <rect x="3.3" y="4" width="1.2" height="2.1"/>
  <rect x="4.4" y="4" width="1.2" height="2.1"/>
  <rect x="5.5" y="4" width="1.2" height="2.1"/>
  <rect x="6.6" y="4" width="1.2" height="2.1"/>
  <rect x="9.9" y="4" width="1.2" height="2.1"/>
  <rect x="11" y="4" width="1.2" height="2.1"/>
  <rect x="12.1" y="4" width="1.2" height="2.1"/>
  <rect x="16.5" y="4" width="1.2" height="2.1"/>
  <rect x="17.6" y="4" width="1.2" height="2.1"/>
  <rect x="18.7" y="4" width="1.2" height="2.1"/>
  <rect x="19.8" y="4" width="1.2" height="2.1"/>
  <rect x="20.9" y="4" width="1.2" height="2.1"/>
  <rect x="22" y="4" width="1.2" height="2.1"/>
  <rect x="23.1" y="4" width="1.2" height="2.1"/>
  <rect x="27.5" y="4" width="1.2" height="2.1"/>
  <rect x="28.6" y="4" width="1.2" height="2.1"/>
  <rect x="29.7" y="4" width="1.2" height="2.1"/>
  <rect x="37.4" y="4" width="1.2" height="2.1"/>
  <rect x="38.5" y="4" width="1.2" height="2.1"/>
  <rect x="39.6" y="4" width="1.2" height="2.1"/>
  <rect x="42.9" y="4" width="1.2" height="2.1"/>
  <rect x="44" y="4" width="1.2" height="2.1"/>
  <rect x="45.1" y="4" width="1.2" height="2.1"/>
  <rect x="46.2" y="4" width="1.2" height="2.1"/>
  <rect x="47.3" y="4" width="1.2" height="2.1"/>
  <rect x="48.4" y="4" width="1.2" height="2.1"/>
  <rect x="49.5" y="4" width="1.2" height="2.1"/>
  <rect x="55" y="4" width="1.2" height="2.1"/>
  <rect x="56.1" y="4" width="1.2" height="2.1"/>
  <rect x="57.2" y="4" width="1.2" height="2.1"/>
  <rect x="58.3" y="4" width="1.2" height="2.1"/>
  <rect x="59.4" y="4" width="1.2" height="2.1"/>
  <rect x="62.7" y="4" width="1.2" height="2.1"/>
  <rect x="63.8" y="4" width="1.2" height="2.1"/>
  <rect x="64.9" y="4" width="1.2" height="2.1"/>
  <rect x="72.6" y="4" width="1.2" height="2.1"/>
  <rect x="73.7" y="4" width="1.2" height="2.1"/>
  <rect x="74.8" y="4" width="1.2" height="2.1"/>
  <rect x="78.1" y="4" width="1.2" height="2.1"/>
  <rect x="79.2" y="4" width="1.2" height="2.1"/>
  <rect x="80.3" y="4" width="1.2" height="2.1"/>
  <rect x="83.6" y="4" width="1.2" height="2.1"/>
  <rect x="84.7" y="4" width="1.2" height="2.1"/>
  <rect x="85.8" y="4" width="1.2" height="2.1"/>
  <rect x="86.9" y="4" width="1.2" height="2.1"/>
  <rect x="88" y="4" width="1.2" height="2.1"/>
  <rect x="91.3" y="4" width="1.2" height="2.1"/>
  <rect x="92.4" y="4" width="1.2" height="2.1"/>
  <rect x="93.5" y="4" width="1.2" height="2.1"/>
  <rect x="94.6" y="4" width="1.2" height="2.1"/>
  <rect x="95.7" y="4" width="1.2" height="2.1"/>
  <rect x="96.8" y="4" width="1.2" height="2.1"/>
  <rect x="97.9" y="4" width="1.2" height="2.1"/>
  <rect x="0" y="6" width="1.2" height="2.1"/>
  <rect x="1.1" y="6" width="1.2" height="2.1"/>
  <rect x="2.2" y="6" width="1.2" height="2.1"/>
  <rect x="9.9" y="6" width="1.2" height="2.1"/>
  <rect x="11" y="6" width="1.2" height="2.1"/>
  <rect x="12.1" y="6" width="1.2" height="2.1"/>
  <rect x="15.4" y="6" width="1.2" height="2.1"/>
  <rect x="16.5" y="6" width="1.2" height="2.1"/>
  <rect x="17.6" y="6" width="1.2" height="2.1"/>
  <rect x="22" y="6" width="1.2" height="2.1"/>
  <rect x="23.1" y="6" width="1.2" height="2.1"/>
  <rect x="24.2" y="6" width="1.2" height="2.1"/>
  <rect x="27.5" y="6" width="1.2" height="2.1"/>
  <rect x="28.6" y="6" width="1.2" height="2.1"/>
  <rect x="29.7" y="6" width="1.2" height="2.1"/>
  <rect x="37.4" y="6" width="1.2" height="2.1"/>
  <rect x="38.5" y="6" width="1.2" height="2.1"/>
  <rect x="39.6" y="6" width="1.2" height="2.1"/>
  <rect x="42.9" y="6" width="1.2" height="2.1"/>
  <rect x="44" y="6" width="1.2" height="2.1"/>
  <rect x="45.1" y="6" width="1.2" height="2.1"/>
  <rect x="52.8" y="6" width="1.2" height="2.1"/>
  <rect x="53.9" y="6" width="1.2" height="2.1"/>
  <rect x="55" y="6" width="1.2" height="2.1"/>
  <rect x="62.7" y="6" width="1.2" height="2.1"/>
  <rect x="63.8" y="6" width="1.2" height="2.1"/>
  <rect x="64.9" y="6" width="1.2" height="2.1"/>
  <rect x="72.6" y="6" width="1.2" height="2.1"/>
  <rect x="73.7" y="6" width="1.2" height="2.1"/>
  <rect x="74.8" y="6" width="1.2" height="2.1"/>
  <rect x="78.1" y="6" width="1.2" height="2.1"/>
  <rect x="79.2" y="6" width="1.2" height="2.1"/>
  <rect x="80.3" y="6" width="1.2" height="2.1"/>
  <rect x="84.7" y="6" width="1.2" height="2.1"/>
  <rect x="85.8" y="6" width="1.2" height="2.1"/>
  <rect x="86.9" y="6" width="1.2" height="2.1"/>
  <rect x="94.6" y="6" width="1.2" height="2.1"/>
  <rect x="95.7" y="6" width="1.2" height="2.1"/>
  <rect x="96.8" y="6" width="1.2" height="2.1"/>
  <rect x="0" y="8" width="1.2" height="2.1"/>
  <rect x="1.1" y="8" width="1.2" height="2.1"/>
  <rect x="2.2" y="8" width="1.2" height="2.1"/>
  <rect x="9.9" y="8" width="1.2" height="2.1"/>
  <rect x="11" y="8" width="1.2" height="2.1"/>
  <rect x="12.1" y="8" width="1.2" height="2.1"/>
  <rect x="15.4" y="8" width="1.2" height="2.1"/>
  <rect x="16.5" y="8" width="1.2" height="2.1"/>
  <rect x="17.6" y="8" width="1.2" height="2.1"/>
  <rect x="18.7" y="8" width="1.2" height="2.1"/>
  <rect x="19.8" y="8" width="1.2" height="2.1"/>
  <rect x="20.9" y="8" width="1.2" height="2.1"/>
  <rect x="22" y="8" width="1.2" height="2.1"/>
  <rect x="23.1" y="8" width="1.2" height="2.1"/>
  <rect x="24.2" y="8" width="1.2" height="2.1"/>
  <rect x="27.5" y="8" width="1.2" height="2.1"/>
  <rect x="28.6" y="8" width="1.2" height="2.1"/>
  <rect x="29.7" y="8" width="1.2" height="2.1"/>
  <rect x="31.9" y="8" width="1.2" height="2.1"/>
  <rect x="33" y="8" width="1.2" height="2.1"/>
  <rect x="34.1" y="8" width="1.2" height="2.1"/>
  <rect x="35.2" y="8" width="1.2" height="2.1"/>
  <rect x="37.4" y="8" width="1.2" height="2.1"/>
  <rect x="38.5" y="8" width="1.2" height="2.1"/>
  <rect x="39.6" y="8" width="1.2" height="2.1"/>
  <rect x="44" y="8" width="1.2" height="2.1"/>
  <rect x="45.1" y="8" width="1.2" height="2.1"/>
  <rect x="46.2" y="8" width="1.2" height="2.1"/>
  <rect x="47.3" y="8" width="1.2" height="2.1"/>
  <rect x="48.4" y="8" width="1.2" height="2.1"/>
  <rect x="52.8" y="8" width="1.2" height="2.1"/>
  <rect x="53.9" y="8" width="1.2" height="2.1"/>
  <rect x="55" y="8" width="1.2" height="2.1"/>
  <rect x="56.1" y="8" width="1.2" height="2.1"/>
  <rect x="57.2" y="8" width="1.2" height="2.1"/>
  <rect x="58.3" y="8" width="1.2" height="2.1"/>
  <rect x="59.4" y="8" width="1.2" height="2.1"/>
  <rect x="62.7" y="8" width="1.2" height="2.1"/>
  <rect x="63.8" y="8" width="1.2" height="2.1"/>
  <rect x="64.9" y="8" width="1.2" height="2.1"/>
  <rect x="67.1" y="8" width="1.2" height="2.1"/>
  <rect x="68.2" y="8" width="1.2" height="2.1"/>
  <rect x="69.3" y="8" width="1.2" height="2.1"/>
  <rect x="70.4" y="8" width="1.2" height="2.1"/>
  <rect x="72.6" y="8" width="1.2" height="2.1"/>
  <rect x="73.7" y="8" width="1.2" height="2.1"/>
  <rect x="74.8" y="8" width="1.2" height="2.1"/>
  <rect x="78.1" y="8" width="1.2" height="2.1"/>
  <rect x="79.2" y="8" width="1.2" height="2.1"/>
  <rect x="80.3" y="8" width="1.2" height="2.1"/>
  <rect x="84.7" y="8" width="1.2" height="2.1"/>
  <rect x="85.8" y="8" width="1.2" height="2.1"/>
  <rect x="86.9" y="8" width="1.2" height="2.1"/>
  <rect x="93.5" y="8" width="1.2" height="2.1"/>
  <rect x="94.6" y="8" width="1.2" height="2.1"/>
  <rect x="95.7" y="8" width="1.2" height="2.1"/>
  <rect x="0" y="10" width="1.2" height="2.1"/>
  <rect x="1.1" y="10" width="1.2" height="2.1"/>
  <rect x="2.2" y="10" width="1.2" height="2.1"/>
  <rect x="9.9" y="10" width="1.2" height="2.1"/>
  <rect x="11" y="10" width="1.2" height="2.1"/>
  <rect x="12.1" y="10" width="1.2" height="2.1"/>
  <rect x="15.4" y="10" width="1.2" height="2.1"/>
  <rect x="16.5" y="10" width="1.2" height="2.1"/>
  <rect x="17.6" y="10" width="1.2" height="2.1"/>
  <rect x="22" y="10" width="1.2" height="2.1"/>
  <rect x="23.1" y="10" width="1.2" height="2.1"/>
  <rect x="24.2" y="10" width="1.2" height="2.1"/>
  <rect x="28.6" y="10" width="1.2" height="2.1"/>
  <rect x="29.7" y="10" width="1.2" height="2.1"/>
  <rect x="30.8" y="10" width="1.2" height="2.1"/>
  <rect x="33" y="10" width="1.2" height="2.1"/>
  <rect x="34.1" y="10" width="1.2" height="2.1"/>
  <rect x="36.3" y="10" width="1.2" height="2.1"/>
  <rect x="37.4" y="10" width="1.2" height="2.1"/>
  <rect x="38.5" y="10" width="1.2" height="2.1"/>
  <rect x="47.3" y="10" width="1.2" height="2.1"/>
  <rect x="48.4" y="10" width="1.2" height="2.1"/>
  <rect x="49.5" y="10" width="1.2" height="2.1"/>
  <rect x="52.8" y="10" width="1.2" height="2.1"/>
  <rect x="53.9" y="10" width="1.2" height="2.1"/>
  <rect x="55" y="10" width="1.2" height="2.1"/>
  <rect x="63.8" y="10" width="1.2" height="2.1"/>
  <rect x="64.9" y="10" width="1.2" height="2.1"/>
  <rect x="66" y="10" width="1.2" height="2.1"/>
  <rect x="68.2" y="10" width="1.2" height="2.1"/>
  <rect x="69.3" y="10" width="1.2" height="2.1"/>
  <rect x="71.5" y="10" width="1.2" height="2.1"/>
  <rect x="72.6" y="10" width="1.2" height="2.1"/>
  <rect x="73.7" y="10" width="1.2" height="2.1"/>
  <rect x="78.1" y="10" width="1.2" height="2.1"/>
  <rect x="79.2" y="10" width="1.2" height="2.1"/>
  <rect x="80.3" y="10" width="1.2" height="2.1"/>
  <rect x="84.7" y="10" width="1.2" height="2.1"/>
  <rect x="85.8" y="10" width="1.2" height="2.1"/>
  <rect x="86.9" y="10" width="1.2" height="2.1"/>
  <rect x="92.4" y="10" width="1.2" height="2.1"/>
  <rect x="93.5" y="10" width="1.2" height="2.1"/>
  <rect x="94.6" y="10" width="1.2" height="2.1"/>
  <rect x="2.2" y="12" width="1.2" height="2.1"/>
  <rect x="3.3" y="12" width="1.2" height="2.1"/>
  <rect x="4.4" y="12" width="1.2" height="2.1"/>
  <rect x="5.5" y="12" width="1.2" height="2.1"/>
  <rect x="6.6" y="12" width="1.2" height="2.1"/>
  <rect x="9.9" y="12" width="1.2" height="2.1"/>
  <rect x="11" y="12" width="1.2" height="2.1"/>
  <rect x="12.1" y="12" width="1.2" height="2.1"/>
  <rect x="15.4" y="12" width="1.2" height="2.1"/>
  <rect x="16.5" y="12" width="1.2" height="2.1"/>
  <rect x="17.6" y="12" width="1.2" height="2.1"/>
  <rect x="22" y="12" width="1.2" height="2.1"/>
  <rect x="23.1" y="12" width="1.2" height="2.1"/>
  <rect x="24.2" y="12" width="1.2" height="2.1"/>
  <rect x="29.7" y="12" width="1.2" height="2.1"/>
  <rect x="30.8" y="12" width="1.2" height="2.1"/>
  <rect x="31.9" y="12" width="1.2" height="2.1"/>
  <rect x="35.2" y="12" width="1.2" height="2.1"/>
  <rect x="36.3" y="12" width="1.2" height="2.1"/>
  <rect x="37.4" y="12" width="1.2" height="2.1"/>
  <rect x="42.9" y="12" width="1.2" height="2.1"/>
  <rect x="44" y="12" width="1.2" height="2.1"/>
  <rect x="45.1" y="12" width="1.2" height="2.1"/>
  <rect x="46.2" y="12" width="1.2" height="2.1"/>
  <rect x="47.3" y="12" width="1.2" height="2.1"/>
  <rect x="48.4" y="12" width="1.2" height="2.1"/>
  <rect x="49.5" y="12" width="1.2" height="2.1"/>
  <rect x="55" y="12" width="1.2" height="2.1"/>
  <rect x="56.1" y="12" width="1.2" height="2.1"/>
  <rect x="57.2" y="12" width="1.2" height="2.1"/>
  <rect x="58.3" y="12" width="1.2" height="2.1"/>
  <rect x="59.4" y="12" width="1.2" height="2.1"/>
  <rect x="64.9" y="12" width="1.2" height="2.1"/>
  <rect x="66" y="12" width="1.2" height="2.1"/>
  <rect x="67.1" y="12" width="1.2" height="2.1"/>
  <rect x="70.4" y="12" width="1.2" height="2.1"/>
  <rect x="71.5" y="12" width="1.2" height="2.1"/>
  <rect x="72.6" y="12" width="1.2" height="2.1"/>
  <rect x="78.1" y="12" width="1.2" height="2.1"/>
  <rect x="79.2" y="12" width="1.2" height="2.1"/>
  <rect x="80.3" y="12" width="1.2" height="2.1"/>
  <rect x="85.8" y="12" width="1.2" height="2.1"/>
  <rect x="86.9" y="12" width="1.2" height="2.1"/>
  <rect x="88" y="12" width="1.2" height="2.1"/>
  <rect x="91.3" y="12" width="1.2" height="2.1"/>
  <rect x="92.4" y="12" width="1.2" height="2.1"/>
  <rect x="93.5" y="12" width="1.2" height="2.1"/>
  <rect x="94.6" y="12" width="1.2" height="2.1"/>
  <rect x="95.7" y="12" width="1.2" height="2.1"/>
  <rect x="96.8" y="12" width="1.2" height="2.1"/>
  <rect x="97.9" y="12" width="1.2" height="2.1"/>
</svg>