<svg xmlns="http://www.w3.org/2000/svg" viewBox="0 0 180 14" fill="#1E3A5F">
  <rect x="18" y="0" width="2" height="2"/>
  <rect x="20" y="0" width="2" height="2"/>
  <rect x="22" y="0" width="2" height="2"/>
  <rect x="142" y="0" width="2" height="2"/>
  <rect x="144" y="0" width="2" height="2"/>
  <rect x="146" y="0" width="2" height="2"/>
  <rect x="154" y="0" width="2" height="2"/>
  <rect x="156" y="0" width="2" height="2"/>
  <rect x="158" y="0" width="2" height="2"/>
  <rect x="18" y="2" width="2" height="2"/>
  <rect x="20" y="2" width="2" height="2"/>
  <rect x="22" y="2" width="2" height="2"/>
  <rect x="154" y="2" width="2" height="2"/>
  <rect x="156" y="2" width="2" height="2"/>
  <rect x="158" y="2" width="2" height="2"/>
  <rect x="4" y="4" width="2" height="2"/>
  <rect x="6" y="4" width="2" height="2"/>
  <rect x="8" y="4" width="2" height="2"/>
  <rect x="10" y="4" width="2" height="2"/>
  <rect x="12" y="4" width="2" height="2"/>
  <rect x="18" y="4" width="2" height="2"/>
  <rect x="20" y="4" width="2" height="2"/>
  <rect x="22" y="4" width="2" height="2"/>
  <rect x="30" y="4" width="2" height="2"/>
  <rect x="32" y="4" width="2" height="2"/>
  <rect x="34" y="4" width="2" height="2"/>
  <rect x="36" y="4" width="2" height="2"/>
  <rect x="38" y="4" width="2" height="2"/>
  <rect x="40" y="4" width="2" height="2"/>
  <rect x="42" y="4" width="2" height="2"/>
  <rect x="50" y="4" width="2" height="2"/>
  <rect x="52" y="4" width="2" height="2"/>
  <rect x="54" y="4" width="2" height="2"/>
  <rect x="68" y="4" width="2" height="2"/>
  <rect x="70" y="4" width="2" height="2"/>
  <rect x="72" y="4" width="2" height="2"/>
  <rect x="78" y="4" width="2" height="2"/>
  <rect x="80" y="4" width="2" height="2"/>
  <rect x="82" y="4" width="2" height="2"/>
  <rect x="84" y="4" width="2" height="2"/>
  <rect x="86" y="4" width="2" height="2"/>
  <rect x="88" y="4" width="2" height="2"/>
  <rect x="90" y="4" width="2" height="2"/>
  <rect x="100" y="4" width="2" height="2"/>
  <rect x="102" y="4" width="2" height="2"/>
  <rect x="104" y="4" width="2" height="2"/>
  <rect x="106" y="4" width="2" height="2"/>
  <rect x="108" y="4" width="2" height="2"/>
  <rect x="114" y="4" width="2" height="2"/>
  <rect x="116" y="4" width="2" height="2"/>
  <rect x="118" y="4" width="2" height="2"/>
  <rect x="132" y="4" width="2" height="2"/>
  <rect x="134" y="4" width="2" height="2"/>
  <rect x="136" y="4" width="2" height="2"/>
  <rect x="142" y="4" width="2" height="2"/>
  <rect x="144" y="4" width="2" height="2"/>
  <rect x="146" y="4" width="2" height="2"/>
  <rect x="152" y="4" width="2" height="2"/>
  <rect x="154" y="4" width="2" height="2"/>
  <rect x="156" y="4" width="2" height="2"/>
  <rect x="158" y="4" width="2" height="2"/>
  <rect x="160" y="4" width="2" height="2"/>
  <rect x="166" y="4" width="2" height="2"/>
  <rect x="168" y="4" width="2" height="2"/>
  <rect x="170" y="4" width="2" height="2"/>
  <rect x="172" y="4" width="2" height="2"/>
  <rect x="174" y="4" width="2" height="2"/>
  <rect x="176" y="4" width="2" height="2"/>
  <rect x="178" y="4" width="2" height="2"/>
  <rect x="0" y="6" width="2" height="2"/>
  <rect x="2" y="6" width="2" height="2"/>
  <rect x="4" y="6" width="2" height="2"/>
  <rect x="18" y="6" width="2" height="2"/>
  <rect x="20" y="6" width="2" height="2"/>
  <rect x="22" y="6" width="2" height="2"/>
  <rect x="28" y="6" width="2" height="2"/>
  <rect x="30" y="6" width="2" height="2"/>
  <rect x="32" y="6" width="2" height="2"/>
  <rect x="40" y="6" width="2" height="2"/>
  <rect x="42" y="6" width="2" height="2"/>
  <rect x="44" y="6" width="2" height="2"/>
  <rect x="50" y="6" width="2" height="2"/>
  <rect x="52" y="6" width="2" height="2"/>
  <rect x="54" y="6" width="2" height="2"/>
  <rect x="68" y="6" width="2" height="2"/>
  <rect x="70" y="6" width="2" height="2"/>
  <rect x="72" y="6" width="2" height="2"/>
  <rect x="78" y="6" width="2" height="2"/>
  <rect x="80" y="6" width="2" height="2"/>
  <rect x="82" y="6" width="2" height="2"/>
  <rect x="96" y="6" width="2" height="2"/>
  <rect x="98" y="6" width="2" height="2"/>
  <rect x="100" y="6" width="2" height="2"/>
  <rect x="114" y="6" width="2" height="2"/>
  <rect x="116" y="6" width="2" height="2"/>
  <rect x="118" y="6" width="2" height="2"/>
  <rect x="132" y="6" width="2" height="2"/>
  <rect x="134" y="6" width="2" height="2"/>
  <rect x="136" y="6" width="2" height="2"/>
  <rect x="142" y="6" width="2" height="2"/>
  <rect x="144" y="6" width="2" height="2"/>
  <rect x="146" y="6" width="2" height="2"/>
  <rect x="154" y="6" width="2" height="2"/>
  <rect x="156" y="6" width="2" height="2"/>
  <rect x="158" y="6" width="2" height="2"/>
  <rect x="172" y="6" width="2" height="2"/>
  <rect x="174" y="6" width="2" height="2"/>
  <rect x="176" y="6" width="2" height="2"/>
  <rect x="0" y="8" width="2" height="2"/>
  <rect x="2" y="8" width="2" height="2"/>
  <rect x="4" y="8" width="2" height="2"/>
  <rect x="18" y="8" width="2" height="2"/>
  <rect x="20" y="8" width="2" height="2"/>
  <rect x="22" y="8" width="2" height="2"/>
  <rect x="28" y="8" width="2" height="2"/>
  <rect x="30" y="8" width="2" height="2"/>
  <rect x="32" y="8" width="2" height="2"/>
  <rect x="34" y="8" width="2" height="2"/>
  <rect x="36" y="8" width="2" height="2"/>
  <rect x="38" y="8" width="2" height="2"/>
  <rect x="40" y="8" width="2" height="2"/>
  <rect x="42" y="8" width="2" height="2"/>
  <rect x="44" y="8" width="2" height="2"/>
  <rect x="50" y="8" width="2" height="2"/>
  <rect x="52" y="8" width="2" height="2"/>
  <rect x="54" y="8" width="2" height="2"/>
  <rect x="58" y="8" width="2" height="2"/>
  <rect x="60" y="8" width="2" height="2"/>
  <rect x="62" y="8" width="2" height="2"/>
  <rect x="64" y="8" width="2" height="2"/>
  <rect x="68" y="8" width="2" height="2"/>
  <rect x="70" y="8" width="2" height="2"/>
  <rect x="72" y="8" width="2" height="2"/>
  <rect x="80" y="8" width="2" height="2"/>
  <rect x="82" y="8" width="2" height="2"/>
  <rect x="84" y="8" width="2" height="2"/>
  <rect x="86" y="8" width="2" height="2"/>
  <rect x="88" y="8" width="2" height="2"/>
  <rect x="96" y="8" width="2" height="2"/>
  <rect x="98" y="8" width="2" height="2"/>
  <rect x="100" y="8" width="2" height="2"/>
  <rect x="102" y="8" width="2" height="2"/>
  <rect x="104" y="8" width="2" height="2"/>
  <rect x="106" y="8" width="2" height="2"/>
  <rect x="108" y="8" width="2" height="2"/>
  <rect x="114" y="8" width="2" height="2"/>
  <rect x="116" y="8" width="2" height="2"/>
  <rect x="118" y="8" width="2" height="2"/>
  <rect x="122" y="8" width="2" height="2"/>
  <rect x="124" y="8" width="2" height="2"/>
  <rect x="126" y="8" width="2" height="2"/>
  <rect x="128" y="8" width="2" height="2"/>
  <rect x="132" y="8" width="2" height="2"/>
  <rect x="134" y="8" width="2" height="2"/>
  <rect x="136" y="8" width="2" height="2"/>
  <rect x="142" y="8" width="2" height="2"/>
  <rect x="144" y="8" width="2" height="2"/>
  <rect x="146" y="8" width="2" height="2"/>
  <rect x="154" y="8" width="2" height="2"/>
  <rect x="156" y="8" width="2" height="2"/>
  <rect x="158" y="8" width="2" height="2"/>
  <rect x="170" y="8" width="2" height="2"/>
  <rect x="172" y="8" width="2" height="2"/>
  <rect x="174" y="8" width="2" height="2"/>
  <rect x="0" y="10" width="2" height="2"/>
  <rect x="2" y="10" width="2" height="2"/>
  <rect x="4" y="10" width="2" height="2"/>
  <rect x="18" y="10" width="2" height="2"/>
  <rect x="20" y="10" width="2" height="2"/>
  <rect x="22" y="10" width="2" height="2"/>
  <rect x="28" y="10" width="2" height="2"/>
  <rect x="30" y="10" width="2" height="2"/>
  <rect x="32" y="10" width="2" height="2"/>
  <rect x="40" y="10" width="2" height="2"/>
  <rect x="42" y="10" width="2" height="2"/>
  <rect x="44" y="10" width="2" height="2"/>
  <rect x="52" y="10" width="2" height="2"/>
  <rect x="54" y="10" width="2" height="2"/>
  <rect x="56" y="10" width="2" height="2"/>
  <rect x="60" y="10" width="2" height="2"/>
  <rect x="62" y="10" width="2" height="2"/>
  <rect x="66" y="10" width="2" height="2"/>
  <rect x="68" y="10" width="2" height="2"/>
  <rect x="70" y="10" width="2" height="2"/>
  <rect x="86" y="10" width="2" height="2"/>
  <rect x="88" y="10" width="2" height="2"/>
  <rect x="90" y="10" width="2" height="2"/>
  <rect x="96" y="10" width="2" height="2"/>
  <rect x="98" y="10" width="2" height="2"/>
  <rect x="100" y="10" width="2" height="2"/>
  <rect x="116" y="10" width="2" height="2"/>
  <rect x="118" y="10" width="2" height="2"/>
  <rect x="120" y="10" width="2" height="2"/>
  <rect x="124" y="10" width="2" height="2"/>
  <rect x="126" y="10" width="2" height="2"/>
  <rect x="130" y="10" width="2" height="2"/>
  <rect x="132" y="10" width="2" height="2"/>
  <rect x="134" y="10" width="2" height="2"/>
  <rect x="142" y="10" width="2" height="2"/>
  <rect x="144" y="10" width="2" height="2"/>
  <rect x="146" y="10" width="2" height="2"/>
  <rect x="154" y="10" width="2" height="2"/>
  <rect x="156" y="10" width="2" height="2"/>
  <rect x="158" y="10" width="2" height="2"/>
  <rect x="168" y="10" width="2" height="2"/>
  <rect x="170" y="10" width="2" height="2"/>
  <rect x="172" y="10" width="2" height="2"/>
  <rect x="4" y="12" width="2" height="2"/>
  <rect x="6" y="12" width="2" height="2"/>
  <rect x="8" y="12" width="2" height="2"/>
  <rect x="10" y="12" width="2" height="2"/>
  <rect x="12" y="12" width="2" height="2"/>
  <rect x="18" y="12" width="2" height="2"/>
  <rect x="20" y="12" width="2" height="2"/>
  <rect x="22" y="12" width="2" height="2"/>
  <rect x="28" y="12" width="2" height="2"/>
  <rect x="30" y="12" width="2" height="2"/>
  <rect x="32" y="12" width="2" height="2"/>
  <rect x="40" y="12" width="2" height="2"/>
  <rect x="42" y="12" width="2" height="2"/>
  <rect x="44" y="12" width="2" height="2"/>
  <rect x="54" y="12" width="2" height="2"/>
  <rect x="56" y="12" width="2" height="2"/>
  <rect x="58" y="12" width="2" height="2"/>
  <rect x="64" y="12" width="2" height="2"/>
  <rect x="66" y="12" width="2" height="2"/>
  <rect x="68" y="12" width="2" height="2"/>
  <rect x="78" y="12" width="2" height="2"/>
  <rect x="80" y="12" width="2" height="2"/>
  <rect x="82" y="12" width="2" height="2"/>
  <rect x="84" y="12" width="2" height="2"/>
  <rect x="86" y="12" width="2" height="2"/>
  <rect x="88" y="12" width="2" height="2"/>
  <rect x="90" y="12" width="2" height="2"/>
  <rect x="100" y="12" width="2" height="2"/>
  <rect x="102" y="12" width="2" height="2"/>
  <rect x="104" y="12" width="2" height="2"/>
  <rect x="106" y="12" width="2" height="2"/>
  <rect x="108" y="12" width="2" height="2"/>
  <rect x="118" y="12" width="2" height="2"/>
  <rect x="120" y="12" width="2" height="2"/>
  <rect x="122" y="12" width="2" height="2"/>
  <rect x="128" y="12" width="2" height="2"/>
  <rect x="130" y="12" width="2" height="2"/>
  <rect x="132" y="12" width="2" height="2"/>
  <rect x="142" y="12" width="2" height="2"/>
  <rect x="144" y="12" width="2" height="2"/>
  <rect x="146" y="12" width="2" height="2"/>
  <rect x="156" y="12" width="2" height="2"/>
  <rect x="158" y="12" width="2" height="2"/>
  <rect x="160" y="12" width="2" height="2"/>
  <rect x="166" y="12" width="2" height="2"/>
  <rect x="168" y="12" width="2" height="2"/>
  <rect x="170" y="12" width="2" height="2"/>
  <rect x="172" y="12" width="2" height="2"/>
  <rect x="174" y="12" width="2" height="2"/>
  <rect x="176" y="12" width="2" height="2"/>
  <rect x="178" y="12" width="2" height="2"/>
</svg>